<svg width="90" height="36" viewBox="0 0 90 36" fill="none" xmlns="http://www.w3.org/2000/svg">
<path d="M23.2074 9.47546H38.9057C39.5169 9.47546 40.0714 9.73544 40.4718 10.1538C40.8721 10.5722 41.121 11.1516 41.121 11.7903V18.7113C41.121 18.7934 41.0976 18.8642 41.049 18.9288L37.7915 23.2607C37.7012 23.3808 37.5546 23.4259 37.4163 23.376C37.2782 23.326 37.1895 23.196 37.1895 23.0431V13.9358C37.1895 13.7418 37.0382 13.5836 36.8525 13.5836H25.2606C25.075 13.5836 24.9236 13.7418 24.9236 13.9358V25.0395C24.9236 25.2334 25.075 25.3916 25.2606 25.3916H35.8406C35.9727 25.3916 36.0859 25.4656 36.1436 25.5898C36.2014 25.714 36.1871 25.8528 36.1055 25.9613L33.5459 29.3652C33.4798 29.453 33.3878 29.4998 33.2809 29.4998H23.2074C22.5962 29.4998 22.0418 29.2398 21.6414 28.8214C21.241 28.403 20.9922 27.8237 20.9922 27.185V11.7903C20.9922 11.1516 21.241 10.5722 21.6414 10.1538C22.0418 9.73544 22.5962 9.47546 23.2074 9.47546Z" fill="white"/>
<path d="M5.10277 9.47546H17.0357C17.6469 9.47546 18.2013 9.73544 18.6017 10.1538V10.1619C19.0021 10.5808 19.2509 11.1569 19.2509 11.7903V27.185C19.2509 27.8175 19.0022 28.3944 18.6017 28.8134L18.594 28.8214C18.193 29.2399 17.641 29.4998 17.0357 29.4998H1.6849C0.756925 29.4998 0 28.7088 0 27.7391V27.1523C0 26.1826 0.756925 25.3916 1.6849 25.3916H14.9825C15.1681 25.3916 15.3195 25.2334 15.3195 25.0395V21.8938C15.3195 21.6999 15.1681 21.5417 14.9825 21.5417H1.6849C0.75711 21.5417 0 20.7506 0 19.7811V19.1942C0 18.2246 0.756925 17.4335 1.6849 17.4335H14.9825C15.1681 17.4335 15.3195 17.2754 15.3195 17.0814V13.9358C15.3195 13.7418 15.1681 13.5836 14.9825 13.5836H2.10599C1.28008 13.5836 4.58984 9.47546 5.10277 9.47546Z" fill="white"/>
<path d="M65.0508 27.846V10.974C65.0508 10.0042 65.8077 9.21332 66.7357 9.21332H67.2974C68.2253 9.21332 68.9823 10.0044 68.9823 10.974V27.846C68.9823 28.8156 68.2252 29.6067 67.2974 29.6067H66.7357C65.8078 29.6067 65.0508 28.8157 65.0508 27.846Z" fill="#A2D9F7"/>
<path d="M72.1693 9.21332C77.5514 9.21332 82.9334 9.21332 88.3155 9.21332C89.2435 9.21332 90.0004 10.0042 90.0004 10.974V11.5608C90.0004 12.5305 89.2434 13.3215 88.3155 13.3215H82.2081V27.846C82.2081 28.8156 81.4511 29.6067 80.5232 29.6067H79.9616C79.0337 29.6067 78.2767 28.8157 78.2767 27.846V13.3215H72.1693C71.2414 13.3215 70.4844 12.5304 70.4844 11.5608V10.974C70.4844 10.0044 71.2413 9.21332 72.1693 9.21332Z" fill="#A2D9F7"/>
<path d="M42.875 1.76065C42.875 0.790952 43.6319 0 44.5599 0H45.1215C46.0495 0 46.8064 0.791096 46.8064 1.76065V9.47548H60.7979C61.4092 9.47548 61.9636 9.73546 62.364 10.1539C62.7644 10.5722 63.0132 11.1516 63.0132 11.7903V18.6668C63.0132 18.7489 62.9897 18.8198 62.9412 18.8844L59.6837 23.2162C59.5934 23.3363 59.4468 23.3814 59.3086 23.3315C59.1704 23.2816 59.0817 23.1515 59.0817 22.9987V13.9358C59.0817 13.7418 58.9304 13.5837 58.7448 13.5837H47.1528C46.9672 13.5837 46.8158 13.7418 46.8158 13.9358V25.0395C46.8158 25.2335 46.9672 25.3916 47.1528 25.3916H56.3911C56.5233 25.3916 56.6364 25.4656 56.6942 25.5898C56.7519 25.7141 56.7378 25.8527 56.6561 25.9613L54.0964 29.3652C54.0304 29.4531 53.9384 29.4998 53.8314 29.4998H45.0996C44.4884 29.4998 43.9339 29.2398 43.5336 28.8214C43.1332 28.403 42.8844 27.8237 42.8844 27.185C42.8844 18.7102 42.875 10.2357 42.875 1.76065Z" fill="#A2D9F7"/>
<path d="M67.0172 36C68.1388 36 69.0481 35.0499 69.0481 33.8779C69.0481 32.7058 68.1388 31.7557 67.0172 31.7557C65.8956 31.7557 64.9863 32.7058 64.9863 33.8779C64.9863 35.0499 65.8956 36 67.0172 36Z" fill="#F08143"/>
</svg>
