<svg width="24" height="25" viewBox="0 0 24 25" fill="none" xmlns="http://www.w3.org/2000/svg">
<path d="M6.15471 15.8752C6.05525 15.703 6.0283 15.4983 6.07978 15.3061C6.13127 15.114 6.25696 14.9502 6.42923 14.8507L15.254 9.75573L10.1724 8.39411C10.0743 8.37149 9.98168 8.32934 9.90018 8.27016C9.81868 8.21098 9.74994 8.13599 9.69805 8.04967C9.64616 7.96335 9.61218 7.86746 9.59816 7.76772C9.58413 7.66798 9.59034 7.56644 9.6164 7.46916C9.64247 7.37187 9.68787 7.28083 9.74988 7.20147C9.8119 7.12211 9.88927 7.05605 9.97736 7.00724C10.0655 6.95843 10.1625 6.92786 10.2627 6.91736C10.3628 6.90686 10.4641 6.91664 10.5604 6.94612L17.3905 8.77625C17.5825 8.82781 17.7461 8.95345 17.8455 9.12558C17.9449 9.2977 17.9718 9.50223 17.9205 9.69424L16.0904 16.5244C16.0678 16.6225 16.0256 16.7151 15.9664 16.7966C15.9073 16.8781 15.8323 16.9468 15.746 16.9987C15.6596 17.0506 15.5637 17.0846 15.464 17.0986C15.3643 17.1126 15.2627 17.1064 15.1654 17.0804C15.0682 17.0543 14.9771 17.0089 14.8978 16.9469C14.8184 16.8849 14.7523 16.8075 14.7035 16.7194C14.6547 16.6313 14.6241 16.5343 14.6136 16.4341C14.6031 16.3339 14.6129 16.2327 14.6424 16.1364L16.004 11.0548L7.17923 16.1498C7.00696 16.2492 6.80225 16.2762 6.61011 16.2247C6.41798 16.1732 6.25416 16.0475 6.15471 15.8752Z" fill="currentColor"/>
</svg>
