<svg width="24" height="24" viewBox="0 0 24 24" fill="none" xmlns="http://www.w3.org/2000/svg">
<path fill-rule="evenodd" clip-rule="evenodd" d="M18.341 5.10654C18.5651 5.0122 18.8105 4.97967 19.0514 5.01232C19.2924 5.04497 19.5202 5.14161 19.7112 5.29218C19.9021 5.44276 20.0492 5.64176 20.1372 5.86848C20.2251 6.0952 20.2507 6.34134 20.2112 6.58129L18.1542 19.0587C17.9546 20.2622 16.6341 20.9524 15.5303 20.3529C14.607 19.8514 13.2356 19.0786 12.0021 18.2723C11.3854 17.8687 9.49611 16.5762 9.7283 15.6566C9.92784 14.8702 13.1023 11.9153 14.9162 10.1584C15.6282 9.46822 15.3035 9.07006 14.4628 9.70494C12.3749 11.2813 9.02267 13.6784 7.91434 14.3532C6.93661 14.9482 6.42688 15.0498 5.81739 14.9482C4.70543 14.7632 3.67419 14.4766 2.83251 14.1274C1.69515 13.6558 1.75048 12.0921 2.8316 11.6368L18.341 5.10654Z" fill="white" fill-opacity="0.6"/>
</svg>
