<svg width="36" height="36" viewBox="0 0 36 36" fill="none" xmlns="http://www.w3.org/2000/svg">
<path fill-rule="evenodd" clip-rule="evenodd" d="M27.5115 7.65981C27.8477 7.51831 28.2157 7.4695 28.5772 7.51848C28.9386 7.56745 29.2803 7.71242 29.5668 7.93828C29.8532 8.16414 30.0738 8.46264 30.2058 8.80272C30.3377 9.1428 30.376 9.51201 30.3168 9.87194L27.2313 28.588C26.932 30.3933 24.9511 31.4287 23.2954 30.5294C21.9104 29.777 19.8534 28.6179 18.0032 27.4085C17.078 26.803 14.2442 24.8644 14.5925 23.4849C14.8918 22.3053 19.6534 17.8729 22.3744 15.2377C23.4423 14.2023 22.9553 13.6051 21.6941 14.5574C18.5623 16.9219 13.534 20.5177 11.8715 21.5299C10.4049 22.4223 9.64032 22.5747 8.72608 22.4223C7.05814 22.1448 5.51128 21.7149 4.24876 21.1911C2.54273 20.4836 2.62572 18.1382 4.2474 17.4552L27.5115 7.65981Z" fill="#1C1C1E"/>
</svg>
